<svg id="a" xmlns="http://www.w3.org/2000/svg" width="78" height="25" viewBox="0 0 100.07 30.93"><defs><style>.b{fill:#243547;}</style></defs><path class="b" d="M16.02,19.87l-.33,.33-1.08-1.07-.36,.36-1.02-1.02-.31,.31-.75-.75-1.48,1.48-.25-.25-.89,.89c-.38-.52-.61-1.16-.61-1.85,0-1.73,1.41-3.14,3.15-3.14,1.08,0,2.07,.54,2.65,1.45l.14,.21,2.47-1.58-.14-.21c-1.13-1.75-3.04-2.8-5.12-2.8-3.36,0-6.09,2.73-6.09,6.08s2.73,6.08,6.09,6.08c1.92,0,3.89-1.04,4.85-2.41,.44-.66,.38-.82,.38-.82l-1.29-1.27Zm-1.4-.39l.68,.68h-.23v.43l-.46-.46v-.65Zm-5.62,1.58l-.7,.26,.46-.46v-.46l.93,.93-.69-.26Zm2.07-.38h-.63l.23-.23-.23-.84,1.74,1.73-1.11-.66Zm2.97,.26l-1.06,.28-.8-.81h.95l-1.5-.68,1.15-.2-1.05-.37,.7-.19-.25-.6,3.25,3.24-1.38-.68Zm2.62,.14h-.63v-.53h-.32l.32-.32,1.16,1.16-.53-.31Z"/><path class="b" d="M27.37,12.48v3.18h-.12c-.5-.35-1.12-.55-1.84-.55-1.99,0-2.88,1.22-2.88,3.83v5.27h-3.25V12.28h2.71l.15,1.81h.05c.65-1.37,1.79-2.06,3.48-2.06,.74,0,1.37,.17,1.71,.45Z"/><path class="b" d="M31.64,18.94c.35,1.59,1.79,2.46,3.8,2.46,1.69,0,3.13-.5,4.07-1.42h.12v3.13c-.97,.69-2.53,1.09-4.35,1.09-4.12,0-6.93-2.48-6.93-6.09s2.53-6.09,6.09-6.09,5.89,2.16,5.89,5.59v1.32h-8.69Zm0-1.96h5.76c-.22-1.42-1.32-2.14-2.86-2.14-1.39,0-2.58,.77-2.91,2.14Z"/><path class="b" d="M51.52,23.96l-.1-1.57h-.05c-.77,1.14-2.06,1.81-3.8,1.81-3.3,0-5.71-2.56-5.71-6.09s2.41-6.09,5.71-6.09c1.44,0,2.56,.45,3.35,1.24h.05V6.57h3.25V23.96h-2.71Zm-.45-5.84c0-1.89-1.22-3.2-2.96-3.2s-2.98,1.32-2.98,3.2,1.22,3.21,2.98,3.21,2.96-1.32,2.96-3.21Z"/><path class="b" d="M68.8,18.12c0,3.55-2.58,6.09-6.24,6.09s-6.26-2.53-6.26-6.09,2.58-6.09,6.26-6.09,6.24,2.51,6.24,6.09Zm-9.22,0c0,1.89,1.22,3.21,2.98,3.21s2.96-1.32,2.96-3.21-1.22-3.2-2.96-3.2-2.98,1.32-2.98,3.2Z"/><path class="b" d="M73.61,23.96l-4.52-11.68h3.48l2.71,8.07h.05l2.73-8.07h3.35l-4.5,11.68h-3.3Z"/><path class="b" d="M91.38,23.96l-.1-1.57h-.05c-.77,1.14-2.06,1.81-3.8,1.81-3.3,0-5.71-2.56-5.71-6.09s2.41-6.09,5.71-6.09c1.71,0,3.03,.65,3.78,1.76h.05l.12-1.52h2.71v11.68h-2.71Zm-.45-5.84c0-1.89-1.22-3.2-2.96-3.2s-2.98,1.32-2.98,3.2,1.22,3.21,2.98,3.21,2.96-1.32,2.96-3.21Z"/></svg>